Coordinates
version=1
nRows=43
nColumns=12
inDegrees=yes

Units are S.I. units (second, meters, Newtons, ...)
Angles are in degrees

endheader
time	SC_y	SC_z	SC_x	AC_y	AC_z	AC_x	GH_y	GH_z	GH_yy	EL_x	PS_y
       0.0              -35.17          36.61          82.57          45.92         -9.769          19.09          2.056          49.55         -23.39          93.22          71.99
   0.02328              -35.17          36.61          82.56          45.92         -9.767          19.08          2.055          49.55          -23.4          93.23           72.0
   0.04656              -35.17           36.6          82.55          45.91         -9.766          19.08          2.054          49.54          -23.4          93.23          72.01
   0.06984              -35.17           36.6          82.54          45.91         -9.764          19.08          2.053          49.53         -23.41          93.23          72.02
   0.09312              -35.17          36.59          82.53          45.91         -9.762          19.08          2.052          49.53         -23.42          93.24          72.03
    0.1164              -35.16          36.59          82.51          45.91          -9.76          19.08           2.05          49.52         -23.42          93.24          72.04
    0.1397              -35.16          36.58           82.5           45.9         -9.757          19.08          2.049          49.51         -23.43          93.25          72.06
     0.163              -35.16          36.58          82.49           45.9         -9.755          19.08          2.047           49.5         -23.44          93.25          72.07
    0.1862              -35.16          36.57          82.47           45.9         -9.752          19.07          2.045          49.49         -23.45          93.26          72.08
    0.2095              -35.15          36.56          82.45           45.9         -9.749          19.07          2.044          49.48         -23.46          93.26           72.1
    0.2328              -35.15          36.56          82.44          45.89         -9.746          19.07          2.042          49.47         -23.47          93.27          72.11
    0.2561              -35.15          36.55          82.42          45.89         -9.743          19.07          2.039          49.46         -23.48          93.28          72.13
    0.2793              -35.14          36.54           82.4          45.88          -9.74          19.06          2.037          49.45         -23.49          93.28          72.15
    0.3026              -35.14          36.53          82.37          45.88         -9.736          19.06          2.035          49.44         -23.51          93.29          72.17
    0.3259              -35.13          36.52          82.35          45.87         -9.732          19.06          2.032          49.42         -23.52           93.3          72.19
    0.3492              -35.13          36.51          82.32          45.87         -9.728          19.06          2.029          49.41         -23.54          93.31          72.22
    0.3725              -35.12           36.5          82.29          45.86         -9.723          19.05          2.026          49.39         -23.55          93.32          72.24
    0.3957              -35.12          36.49          82.26          45.86         -9.718          19.05          2.023          49.37         -23.57          93.33          72.27
     0.419              -35.11          36.47          82.23          45.85         -9.712          19.04          2.019          49.35         -23.59          93.35           72.3
    0.4423               -35.1          36.46          82.19          45.84         -9.706          19.04          2.015          49.33         -23.61          93.36          72.33
    0.4656              -35.09          36.44          82.15          45.83         -9.699          19.03           2.01          49.31         -23.63          93.37          72.37
    0.4889              -35.09          36.42           82.1          45.82         -9.691          19.03          2.005          49.28         -23.66          93.39          72.41
    0.5121              -35.08           36.4          82.05          45.81         -9.683          19.02            2.0          49.25         -23.69          93.41          72.45
    0.5354              -35.07          36.38           82.0           45.8         -9.674          19.02          1.994          49.22         -23.72          93.43           72.5
    0.5587              -35.05          36.36          81.94          45.79         -9.664          19.01          1.987          49.18         -23.76          93.45          72.56
     0.582              -35.04          36.33          81.87          45.77         -9.652           19.0           1.98          49.14          -23.8          93.47          72.62
    0.6053              -35.03           36.3          81.79          45.76         -9.639          18.99          1.971           49.1         -23.84           93.5          72.69
    0.6285              -35.01          36.26           81.7          45.74         -9.625          18.98          1.962          49.05         -23.89          93.53          72.76
    0.6518              -34.99          36.23          81.61          45.72         -9.609          18.97          1.951          48.99         -23.95          93.57          72.85
    0.6751              -34.97          36.18          81.49           45.7          -9.59          18.96          1.939          48.92         -24.01          93.61          72.95
    0.6984              -34.95          36.13          81.37          45.67         -9.569          18.94          1.925          48.85         -24.08          93.65          73.06
    0.7216              -34.92          36.07          81.22          45.64         -9.545          18.92          1.909          48.76         -24.17          93.71          73.19
    0.7449              -34.89          36.01          81.05          45.61         -9.517           18.9          1.891          48.67         -24.26          93.77          73.34
    0.7682              -34.85          35.93          80.86          45.57         -9.485          18.88           1.87          48.55         -24.38          93.84          73.51
    0.7915              -34.81          35.84          80.63          45.52         -9.447          18.85          1.845          48.42         -24.51          93.92          73.72
    0.8148              -34.76          35.73          80.36          45.47         -9.402          18.82          1.816          48.26         -24.66          94.02          73.95
     0.838              -34.69           35.6          80.04           45.4         -9.349          18.78          1.781          48.07         -24.85          94.13          74.24
    0.8613              -34.62          35.45          79.66          45.32         -9.285          18.73          1.739          47.85         -25.07          94.27          74.58
    0.8846              -34.53          35.26          79.19          45.23         -9.208          18.68          1.688          47.58         -25.33          94.43          74.99
    0.9079              -34.43          35.04          78.62          45.11         -9.114          18.61          1.627          47.25         -25.66          94.64          75.49
    0.9312              -34.29          34.76          77.92          44.96         -8.998          18.53           1.55          46.84         -26.06          94.89          76.11
    0.9544              -34.13          34.41          77.05          44.79         -8.853          18.42          1.455          46.33         -26.56           95.2          76.89
    0.9777              -33.92          33.97          75.95          44.56         -8.671          18.29          1.336          45.68         -27.19           95.6          77.86
